<svg xmlns="http://www.w3.org/2000/svg" version="1.1" xmlns:xlink="http://www.w3.org/1999/xlink" xmlns:svgjs="http://svgjs.dev/svgjs" width="2000" height="2225" viewBox="0 0 2000 2225"><g transform="matrix(1,0,0,1,-0.41516023115673306,0.9024731696561048)"><svg viewBox="0 0 222 247" data-background-color="#ffffff" preserveAspectRatio="xMidYMid meet" height="2225" width="2000" xmlns="http://www.w3.org/2000/svg" xmlns:xlink="http://www.w3.org/1999/xlink"><g id="tight-bounds" transform="matrix(1,0,0,1,0.046104118396982585,-0.09997365579206985)"><svg viewBox="0 0 221.90781309594462 247.2" height="247.2" width="221.90781309594462"><g><svg viewBox="0 0 221.90781309594462 247.2" height="247.2" width="221.90781309594462"><g><svg viewBox="0 0 221.90781309594462 247.2" height="247.2" width="221.90781309594462"><g id="textblocktransform"><svg viewBox="0 0 221.90781309594462 247.2" height="247.2" width="221.90781309594462" id="textblock"><g><svg viewBox="0 0 221.90781309594462 247.2" height="247.2" width="221.90781309594462"><path d="M221.388 53.02C220.345 27.36 217.372 20.227 217.372 20.227 208.244-6.202 196.851-0.506 186.617 3.292 168.548 3.446 150.553 9.091 132.525 12.119 94.687 12.581 56.526 4.986 18.875 23.717 15.339 29.464-3.669 24.846 0.629 56.304 1.756 69.39 5.866 83.913 5.741 95.922 6.304 98.026 7.087 93.202 7.421 96.23 8.589 104.39 10.498 100.541 12.063 105.365 9.883 118.246 11.447 128.971 12.939 140.21 10.31 143.135 6.941 141.749 5.428 151.449 5.271 158.479 4.426 157.145 3.498 156.837 2.82 156.632 1.453 157.402 1.683 159.608 2.465 167.152-0.894 171.514 1.213 178.904-0.237 186.91 2.215 193.838 1.881 202.511 1.839 204.255 2.069 205.744 2.434 206.154 4.051 208.361 1.693 212.672 1.944 217.342 18.531 249.262 36.527 227.195 53.521 241.872 57.934 231.608 54.617 245.516 56.38 243.36 57.757 240.846 58.758 251.263 60.313 245.362 60.553 243.668 60.187 239.665 61.043 240.435 61.491 240.846 61.888 240.743 61.95 238.382 62.044 234.841 61.22 237.048 61.001 235.201 63.369 225.861 62.785 248.081 65.007 247.158 64.903 244.438 64.256 240.538 65.581 241.051 66.895 237.151 66.937 233.918 68.106 242.693 68.147 244.592 68.356 245.926 68.69 246.85 72.341 237.305 75.972 250.237 79.8 245.926 82.148 241.205 84.401 248.492 86.78 246.696 87.614 245.259 88.459 242.693 89.262 247.004 99.1 247.928 109.585 244.079 118.911 247.158 143.834 241.41 170.468 249.518 196.747 241.923 202.944 238.998 209.381 234.841 215.421 231.506 215.421 231.506 220.314 222.371 220.314 181.316S221.357 145.393 221.513 112.703C221.67 80.013 222.4 78.679 221.357 53.02Z" opacity="1" fill="#4790fc" data-fill-palette-color="tertiary"></path><g transform="matrix(1,0,0,1,55.76832,26.230666666666668)"><svg width="110.37117309594461" viewBox="3.65 -33.7 19.1 33.7" height="194.73866666666666" data-palette-color="#ffffff"><path d="M21.05-18.35L21.05-14.05 8.8-14.05 8.8 0 3.65 0 3.65-33.7 22.75-33.7 22.75-29.4 8.8-29.4 8.8-18.35 21.05-18.35Z" opacity="1" transform="matrix(1,0,0,1,0,0)" fill="#ffffff" class="wordmark-text-0" data-fill-palette-color="quaternary" id="text-0"></path></svg></g></svg></g></svg></g></svg></g><g></g></svg></g><defs></defs></svg><rect width="221.90781309594462" height="247.2" fill="none" stroke="none" visibility="hidden"></rect></g></svg></g></svg>